<svg width="483" height="363" viewBox="0 0 483 363" fill="none" xmlns="http://www.w3.org/2000/svg">
<path d="M82.6865 217.211C62.0164 217.211 45.6439 211.893 33.5693 201.258C21.6993 190.418 15.7643 175.896 15.7643 157.693C15.7643 155.647 15.9689 152.17 16.3783 147.262L18.8341 127.934C19.0388 126.911 19.4481 126.093 20.062 125.479C20.8807 124.661 21.8016 124.252 22.8249 124.252H57.5139C59.7652 124.252 60.8908 125.479 60.8908 127.934L58.4349 147.262C58.2302 148.489 58.1279 150.33 58.1279 152.784C58.1279 161.17 60.6861 167.817 65.8025 172.726C70.9189 177.634 77.9795 180.089 86.9843 180.089C96.8077 180.089 105.199 177.123 112.157 171.192C119.115 165.056 123.208 157.079 124.436 147.262L142.241 3.68154C142.241 2.65889 142.651 1.84077 143.469 1.22718C144.288 0.409057 145.209 0 146.232 0H180.614C181.637 0 182.456 0.409057 183.07 1.22718C183.684 1.84077 183.889 2.65889 183.684 3.68154L166.186 147.262C164.549 161.17 159.842 173.442 152.065 184.077C144.492 194.508 134.669 202.689 122.594 208.621C110.52 214.348 97.2171 217.211 82.6865 217.211Z" fill="white"/>
<path d="M354.491 2.45436C355.719 0.81812 357.254 0 359.096 0H393.785C394.808 0 395.627 0.409057 396.241 1.22718C396.855 1.84077 397.059 2.65889 396.855 3.68154L371.375 211.075C371.375 212.098 370.966 213.018 370.147 213.836C369.329 214.45 368.408 214.757 367.384 214.757H332.695C331.672 214.757 330.853 214.45 330.239 213.836C329.625 213.018 329.421 212.098 329.625 211.075L346.202 75.7784C346.202 74.9603 345.998 74.5512 345.589 74.5512C345.179 74.5512 344.77 74.858 344.361 75.4716L306.602 126.4C305.374 128.036 303.839 128.854 301.997 128.854H284.499C282.657 128.854 281.429 128.036 280.815 126.4L255.336 75.4716C255.131 74.858 254.824 74.6535 254.415 74.858C254.005 74.858 253.698 75.2671 253.494 76.0852L236.917 211.075C236.712 212.098 236.2 213.018 235.382 213.836C234.768 214.45 233.949 214.757 232.926 214.757H197.93C196.907 214.757 196.088 214.45 195.474 213.836C194.86 213.018 194.655 212.098 194.86 211.075L220.34 3.68154C220.544 2.65889 220.954 1.84077 221.567 1.22718C222.386 0.409057 223.307 0 224.33 0H259.326C261.168 0 262.396 0.81812 263.01 2.45436L298.927 73.9376C299.541 75.1648 300.155 75.1648 300.769 73.9376L354.491 2.45436Z" fill="white"/>
<path d="M410.779 214.757C409.756 214.757 408.937 214.45 408.323 213.836C407.709 213.018 407.505 212.098 407.709 211.075L433.189 3.68154C433.394 2.65889 433.803 1.84077 434.417 1.22718C435.235 0.409057 436.156 0 437.18 0H472.176C473.199 0 474.018 0.409057 474.632 1.22718C475.246 1.84077 475.45 2.65889 475.246 3.68154L449.766 211.075C449.561 212.098 449.05 213.018 448.231 213.836C447.617 214.45 446.798 214.757 445.775 214.757H410.779Z" fill="white"/>
<path d="M63.8831 277.097C64.3743 276.443 64.9883 276.116 65.725 276.116H79.6006C80.0099 276.116 80.3374 276.279 80.583 276.607C80.8286 276.852 80.9104 277.179 80.8286 277.588L70.6367 360.546C70.6367 360.955 70.473 361.323 70.1456 361.65C69.8181 361.896 69.4497 362.018 69.0404 362.018H55.1648C54.7555 362.018 54.428 361.896 54.1825 361.65C53.9369 361.323 53.855 360.955 53.9369 360.546L60.5677 306.427C60.5677 306.1 60.4858 305.936 60.3221 305.936C60.1584 305.936 59.9947 306.059 59.8309 306.304L44.7274 326.675C44.2362 327.33 43.6223 327.657 42.8855 327.657H35.8863C35.1495 327.657 34.6584 327.33 34.4128 326.675L24.2209 306.304C24.1391 306.059 24.0163 305.977 23.8526 306.059C23.6888 306.059 23.566 306.222 23.4842 306.55L16.8534 360.546C16.7715 360.955 16.5668 361.323 16.2394 361.65C15.9938 361.896 15.6664 362.018 15.257 362.018H1.25863C0.849319 362.018 0.521871 361.896 0.276284 361.65C0.0306982 361.323 -0.0511637 360.955 0.0306982 360.546L10.2225 277.588C10.3044 277.179 10.4681 276.852 10.7137 276.607C11.0411 276.279 11.4095 276.116 11.8188 276.116H25.8173C26.554 276.116 27.0452 276.443 27.2908 277.097L41.6576 305.691C41.9032 306.182 42.1487 306.182 42.3943 305.691L63.8831 277.097Z" fill="url(#paint0_linear_526_10602)"/>
<path d="M115.132 363C106.7 363 99.9875 360.709 94.9939 356.128C90.0822 351.546 87.6263 345.41 87.6263 337.72C87.6263 336.902 87.7082 335.511 87.8719 333.548L94.7483 277.588C94.8302 277.179 95.0348 276.852 95.3623 276.607C95.6897 276.279 96.0581 276.116 96.4674 276.116H110.343C110.752 276.116 111.08 276.279 111.325 276.607C111.571 276.852 111.653 277.179 111.571 277.588L104.695 333.67C104.613 334.243 104.572 335.02 104.572 336.002C104.572 339.684 105.677 342.629 107.887 344.838C110.097 347.047 113.126 348.151 116.974 348.151C121.149 348.151 124.669 346.842 127.534 344.224C130.481 341.524 132.241 338.006 132.814 333.67L139.691 277.588C139.772 277.179 139.936 276.852 140.182 276.607C140.509 276.279 140.878 276.116 141.287 276.116H155.285C155.695 276.116 156.022 276.279 156.268 276.607C156.513 276.852 156.595 277.179 156.513 277.588L149.637 333.548C148.9 339.356 146.976 344.51 143.866 349.01C140.755 353.428 136.703 356.864 131.709 359.318C126.797 361.773 121.272 363 115.132 363Z" fill="url(#paint1_linear_526_10602)"/>
<path d="M218.318 277.588C218.4 277.179 218.564 276.852 218.81 276.607C219.137 276.279 219.506 276.116 219.915 276.116H233.913C234.323 276.116 234.65 276.279 234.896 276.607C235.141 276.852 235.223 277.179 235.141 277.588L224.949 360.546C224.867 360.955 224.663 361.323 224.335 361.65C224.09 361.896 223.762 362.018 223.353 362.018H209.846C209.109 362.018 208.618 361.691 208.372 361.036L183.936 308.513C183.855 308.268 183.732 308.186 183.568 308.268C183.404 308.268 183.282 308.431 183.2 308.759L177.06 360.546C176.978 360.955 176.773 361.323 176.446 361.65C176.2 361.896 175.873 362.018 175.464 362.018H161.465C161.056 362.018 160.729 361.896 160.483 361.65C160.237 361.323 160.155 360.955 160.237 360.546L170.429 277.588C170.511 277.179 170.675 276.852 170.92 276.607C171.248 276.279 171.616 276.116 172.025 276.116H185.533C186.269 276.116 186.802 276.443 187.129 277.097L211.442 329.375C211.524 329.621 211.647 329.743 211.81 329.743C211.974 329.662 212.097 329.457 212.179 329.13L218.318 277.588Z" fill="url(#paint2_linear_526_10602)"/>
<path d="M240.13 362.018C239.72 362.018 239.393 361.896 239.147 361.65C238.902 361.323 238.82 360.955 238.902 360.546L249.094 277.588C249.175 277.179 249.339 276.852 249.585 276.607C249.912 276.279 250.281 276.116 250.69 276.116H280.529C288.715 276.116 295.223 278.161 300.053 282.252C304.883 286.26 307.297 291.66 307.297 298.45C307.297 299.268 307.216 300.496 307.052 302.132L302.877 336.002C302.304 341.156 300.544 345.697 297.597 349.624C294.65 353.551 290.761 356.619 285.931 358.828C281.183 360.955 275.862 362.018 269.968 362.018H240.13ZM257.443 346.556C257.443 346.965 257.607 347.169 257.935 347.169H272.424C276.108 347.169 279.219 345.901 281.756 343.365C284.294 340.829 285.85 337.434 286.423 333.18L289.984 304.954C290.065 304.382 290.106 303.604 290.106 302.623C290.106 299.023 289.124 296.2 287.159 294.155C285.277 292.028 282.616 290.964 279.178 290.964H264.811C264.647 290.964 264.484 291.046 264.32 291.21C264.238 291.292 264.197 291.414 264.197 291.578L257.443 346.556Z" fill="url(#paint3_linear_526_10602)"/>
<path d="M313.638 362.018C313.228 362.018 312.901 361.896 312.655 361.65C312.41 361.323 312.328 360.955 312.41 360.546L322.602 277.588C322.683 277.179 322.847 276.852 323.093 276.607C323.42 276.279 323.789 276.116 324.198 276.116H338.196C338.606 276.116 338.933 276.279 339.179 276.607C339.424 276.852 339.506 277.179 339.424 277.588L329.232 360.546C329.15 360.955 328.946 361.323 328.618 361.65C328.373 361.896 328.045 362.018 327.636 362.018H313.638Z" fill="url(#paint4_linear_526_10602)"/>
<path d="M396.509 362.018C395.772 362.018 395.322 361.609 395.158 360.791L393.07 348.765C393.07 348.683 393.029 348.601 392.948 348.519C392.866 348.356 392.743 348.274 392.579 348.274H363.232C362.986 348.274 362.781 348.437 362.618 348.765L357.583 360.791C357.338 361.609 356.805 362.018 355.987 362.018H340.76C340.269 362.018 339.901 361.855 339.655 361.527C339.492 361.2 339.533 360.791 339.778 360.3L375.757 277.343C376.166 276.525 376.739 276.116 377.476 276.116H396.14C396.877 276.116 397.368 276.525 397.614 277.343L413.086 360.3V360.668C413.086 361.077 412.963 361.405 412.717 361.65C412.472 361.896 412.144 362.018 411.735 362.018H396.509ZM368.635 334.161C368.553 334.652 368.675 334.898 369.003 334.898H390.001C390.41 334.898 390.614 334.652 390.614 334.161L384.352 297.714C384.27 297.387 384.147 297.264 383.984 297.346C383.82 297.346 383.697 297.469 383.615 297.714L368.635 334.161Z" fill="url(#paint5_linear_526_10602)"/>
<path d="M424.919 362.018C424.51 362.018 424.182 361.896 423.936 361.65C423.691 361.323 423.609 360.955 423.691 360.546L433.883 277.588C433.965 277.179 434.128 276.852 434.374 276.607C434.701 276.279 435.07 276.116 435.479 276.116H449.477C449.887 276.116 450.214 276.279 450.46 276.607C450.705 276.852 450.787 277.179 450.705 277.588L442.233 346.556C442.233 346.965 442.396 347.169 442.724 347.169H481.649C482.55 347.169 483 347.66 483 348.642L481.526 360.546C481.445 360.955 481.24 361.323 480.912 361.65C480.667 361.896 480.339 362.018 479.93 362.018H424.919Z" fill="url(#paint6_linear_526_10602)"/>
<defs>
<linearGradient id="paint0_linear_526_10602" x1="137.968" y1="-119.992" x2="451.993" y2="-92.8282" gradientUnits="userSpaceOnUse">
<stop stop-color="#B839AE"/>
<stop offset="0.682292" stop-color="#636ECC"/>
<stop offset="1" stop-color="#00ACEE"/>
</linearGradient>
<linearGradient id="paint1_linear_526_10602" x1="137.968" y1="-119.992" x2="451.993" y2="-92.8282" gradientUnits="userSpaceOnUse">
<stop stop-color="#B839AE"/>
<stop offset="0.682292" stop-color="#636ECC"/>
<stop offset="1" stop-color="#00ACEE"/>
</linearGradient>
<linearGradient id="paint2_linear_526_10602" x1="137.968" y1="-119.992" x2="451.993" y2="-92.8282" gradientUnits="userSpaceOnUse">
<stop stop-color="#B839AE"/>
<stop offset="0.682292" stop-color="#636ECC"/>
<stop offset="1" stop-color="#00ACEE"/>
</linearGradient>
<linearGradient id="paint3_linear_526_10602" x1="137.968" y1="-119.992" x2="451.993" y2="-92.8282" gradientUnits="userSpaceOnUse">
<stop stop-color="#B839AE"/>
<stop offset="0.682292" stop-color="#636ECC"/>
<stop offset="1" stop-color="#00ACEE"/>
</linearGradient>
<linearGradient id="paint4_linear_526_10602" x1="137.968" y1="-119.992" x2="451.993" y2="-92.8282" gradientUnits="userSpaceOnUse">
<stop stop-color="#B839AE"/>
<stop offset="0.682292" stop-color="#636ECC"/>
<stop offset="1" stop-color="#00ACEE"/>
</linearGradient>
<linearGradient id="paint5_linear_526_10602" x1="137.968" y1="-119.992" x2="451.993" y2="-92.8282" gradientUnits="userSpaceOnUse">
<stop stop-color="#B839AE"/>
<stop offset="0.682292" stop-color="#636ECC"/>
<stop offset="1" stop-color="#00ACEE"/>
</linearGradient>
<linearGradient id="paint6_linear_526_10602" x1="137.968" y1="-119.992" x2="451.993" y2="-92.8282" gradientUnits="userSpaceOnUse">
<stop stop-color="#B839AE"/>
<stop offset="0.682292" stop-color="#636ECC"/>
<stop offset="1" stop-color="#00ACEE"/>
</linearGradient>
</defs>
</svg>
